<svg width="24" height="24" viewBox="0 0 24 24" fill="none" xmlns="http://www.w3.org/2000/svg">
<rect width="24" height="24" fill="#1E1E1E"/>
<g id="Website View" clip-path="url(#clip0_60_9)">
<rect width="1920" height="5927" transform="translate(-240 -553)" fill="white"/>
<g id="Group 14">
<path id="Vector 1" d="M515.798 -423H-240V277H474.843L537.206 69.4419H450.643L554.891 -240.878H452.504L515.798 -423Z" fill="url(#paint0_linear_60_9)" fill-opacity="0.5"/>
<path id="Vector 2" d="M616.689 -423H-240V277H570.267L640.954 69.4419H496.716L661 -240.878H544.946L616.689 -423Z" fill="url(#paint1_linear_60_9)" fill-opacity="0.5"/>
</g>
<g id="Group 20">
<g id="Group 17">
<g id="Group 13">
<g id="Group 12">
<g id="Group 11">
<g id="Frame">
<path id="Vector" d="M15 19.128C15.853 19.3757 16.7368 19.5009 17.625 19.5C19.0534 19.5021 20.4633 19.1764 21.746 18.548C21.7839 17.6517 21.5286 16.7675 21.0188 16.0293C20.509 15.2912 19.7724 14.7394 18.9207 14.4575C18.0691 14.1757 17.1487 14.1791 16.2992 14.4674C15.4497 14.7557 14.7173 15.313 14.213 16.055M15 19.128V19.125C15 18.012 14.714 16.965 14.213 16.055M15 19.128V19.234C13.0755 20.3931 10.8706 21.0038 8.62402 21C6.29302 21 4.11202 20.355 2.25002 19.234L2.24902 19.125C2.24826 17.7095 2.71864 16.3339 3.58601 15.2153C4.45338 14.0966 5.6684 13.2984 7.03951 12.9466C8.41063 12.5948 9.85985 12.7093 11.1587 13.2721C12.4575 13.8349 13.5321 14.814 14.213 16.055M12 6.375C12 7.27011 11.6444 8.12855 11.0115 8.76149C10.3786 9.39442 9.52013 9.75 8.62502 9.75C7.72992 9.75 6.87147 9.39442 6.23854 8.76149C5.6056 8.12855 5.25002 7.27011 5.25002 6.375C5.25002 5.47989 5.6056 4.62145 6.23854 3.98851C6.87147 3.35558 7.72992 3 8.62502 3C9.52013 3 10.3786 3.35558 11.0115 3.98851C11.6444 4.62145 12 5.47989 12 6.375ZM20.25 8.625C20.25 9.32119 19.9735 9.98887 19.4812 10.4812C18.9889 10.9734 18.3212 11.25 17.625 11.25C16.9288 11.25 16.2612 10.9734 15.7689 10.4812C15.2766 9.98887 15 9.32119 15 8.625C15 7.92881 15.2766 7.26113 15.7689 6.76884C16.2612 6.27656 16.9288 6 17.625 6C18.3212 6 18.9889 6.27656 19.4812 6.76884C19.9735 7.26113 20.25 7.92881 20.25 8.625Z" stroke="#0B0223" stroke-width="1.5" stroke-linecap="round" stroke-linejoin="round"/>
</g>
</g>
</g>
</g>
</g>
</g>
</g>
<defs>
<linearGradient id="paint0_linear_60_9" x1="509.282" y1="-414.352" x2="-295.495" y2="215.791" gradientUnits="userSpaceOnUse">
<stop stop-color="#8C57EE" stop-opacity="0.05"/>
<stop offset="1" stop-color="#F144AE" stop-opacity="0.05"/>
</linearGradient>
<linearGradient id="paint1_linear_60_9" x1="609.303" y1="-414.352" x2="-213.806" y2="316.179" gradientUnits="userSpaceOnUse">
<stop stop-color="#8C57EE" stop-opacity="0.05"/>
<stop offset="1" stop-color="#F144AE" stop-opacity="0.05"/>
</linearGradient>
<clipPath id="clip0_60_9">
<rect width="1920" height="5927" fill="white" transform="translate(-240 -553)"/>
</clipPath>
</defs>
</svg>
